<?xml version="1.0" encoding="UTF-8"?>
<svg xmlns="http://www.w3.org/2000/svg" version="1.1" width="500" height="500" viewBox="0 0 500 500"><rect x="0" y="0" width="500" height="500" fill="#ffffff"/><g transform="scale(15.152)"><g transform="translate(0,0)"><path fill-rule="evenodd" d="M10 0L10 2L11 2L11 0ZM12 0L12 1L13 1L13 2L12 2L12 4L13 4L13 2L14 2L14 5L11 5L11 6L10 6L10 4L11 4L11 3L8 3L8 4L9 4L9 5L8 5L8 7L9 7L9 8L6 8L6 9L7 9L7 10L5 10L5 8L0 8L0 12L1 12L1 15L2 15L2 16L1 16L1 17L0 17L0 18L1 18L1 19L2 19L2 20L1 20L1 21L0 21L0 25L1 25L1 22L2 22L2 23L3 23L3 25L5 25L5 24L6 24L6 25L8 25L8 27L10 27L10 29L9 29L9 28L8 28L8 33L10 33L10 32L11 32L11 33L12 33L12 31L13 31L13 30L10 30L10 29L11 29L11 25L12 25L12 26L13 26L13 27L12 27L12 29L13 29L13 28L14 28L14 29L15 29L15 31L14 31L14 32L15 32L15 33L17 33L17 32L15 32L15 31L16 31L16 28L20 28L20 29L21 29L21 30L22 30L22 31L18 31L18 30L19 30L19 29L18 29L18 30L17 30L17 31L18 31L18 33L19 33L19 32L23 32L23 33L28 33L28 32L29 32L29 33L32 33L32 32L33 32L33 31L31 31L31 32L29 32L29 31L30 31L30 30L32 30L32 29L33 29L33 27L32 27L32 26L31 26L31 24L33 24L33 21L32 21L32 20L33 20L33 19L32 19L32 16L33 16L33 15L31 15L31 17L30 17L30 15L29 15L29 13L28 13L28 15L24 15L24 14L25 14L25 12L28 12L28 11L30 11L30 10L32 10L32 12L31 12L31 13L30 13L30 14L31 14L31 13L32 13L32 12L33 12L33 10L32 10L32 8L31 8L31 9L30 9L30 8L29 8L29 9L28 9L28 8L27 8L27 10L28 10L28 11L25 11L25 9L26 9L26 8L24 8L24 7L25 7L25 4L23 4L23 3L24 3L24 2L25 2L25 0L23 0L23 1L22 1L22 0L21 0L21 1L22 1L22 2L23 2L23 3L21 3L21 2L19 2L19 1L17 1L17 2L16 2L16 1L15 1L15 0L14 0L14 1L13 1L13 0ZM8 1L8 2L9 2L9 1ZM23 1L23 2L24 2L24 1ZM15 2L15 3L16 3L16 4L15 4L15 5L14 5L14 6L13 6L13 7L12 7L12 6L11 6L11 7L12 7L12 9L11 9L11 8L10 8L10 9L8 9L8 10L7 10L7 11L6 11L6 12L7 12L7 11L8 11L8 10L9 10L9 12L8 12L8 13L9 13L9 14L13 14L13 15L12 15L12 17L11 17L11 16L9 16L9 17L5 17L5 16L3 16L3 17L2 17L2 18L3 18L3 20L4 20L4 18L7 18L7 19L5 19L5 20L8 20L8 21L9 21L9 22L7 22L7 21L4 21L4 22L3 22L3 23L6 23L6 24L7 24L7 23L9 23L9 24L8 24L8 25L9 25L9 26L10 26L10 25L11 25L11 24L10 24L10 21L9 21L9 20L10 20L10 19L9 19L9 20L8 20L8 18L10 18L10 17L11 17L11 22L13 22L13 23L12 23L12 25L14 25L14 26L15 26L15 27L14 27L14 28L16 28L16 27L17 27L17 26L18 26L18 27L20 27L20 26L21 26L21 28L23 28L23 29L24 29L24 30L23 30L23 32L24 32L24 30L25 30L25 29L24 29L24 27L22 27L22 26L21 26L21 24L19 24L19 25L18 25L18 23L21 23L21 21L20 21L20 20L19 20L19 22L18 22L18 20L17 20L17 22L16 22L16 21L15 21L15 20L16 20L16 19L15 19L15 20L14 20L14 18L18 18L18 19L21 19L21 20L22 20L22 19L27 19L27 20L26 20L26 21L27 21L27 20L28 20L28 22L23 22L23 23L22 23L22 25L23 25L23 26L24 26L24 24L23 24L23 23L27 23L27 24L29 24L29 25L30 25L30 23L31 23L31 22L30 22L30 23L28 23L28 22L29 22L29 19L30 19L30 21L31 21L31 18L30 18L30 17L29 17L29 15L28 15L28 16L26 16L26 17L28 17L28 18L29 18L29 19L27 19L27 18L25 18L25 16L23 16L23 15L22 15L22 14L24 14L24 12L25 12L25 11L24 11L24 8L23 8L23 7L24 7L24 6L23 6L23 4L22 4L22 5L21 5L21 3L19 3L19 4L20 4L20 5L18 5L18 2L17 2L17 3L16 3L16 2ZM16 4L16 5L15 5L15 6L14 6L14 7L13 7L13 8L14 8L14 11L12 11L12 13L13 13L13 12L14 12L14 11L16 11L16 12L15 12L15 13L14 13L14 15L13 15L13 17L12 17L12 18L13 18L13 17L19 17L19 16L21 16L21 15L20 15L20 14L19 14L19 16L17 16L17 15L18 15L18 14L17 14L17 15L16 15L16 13L18 13L18 12L21 12L21 14L22 14L22 12L23 12L23 10L22 10L22 9L23 9L23 8L22 8L22 7L23 7L23 6L22 6L22 7L21 7L21 5L20 5L20 7L19 7L19 6L18 6L18 5L17 5L17 4ZM16 5L16 6L15 6L15 8L16 8L16 9L17 9L17 10L16 10L16 11L17 11L17 10L18 10L18 11L22 11L22 10L21 10L21 9L22 9L22 8L21 8L21 9L20 9L20 8L18 8L18 6L17 6L17 5ZM9 6L9 7L10 7L10 6ZM16 6L16 7L17 7L17 6ZM17 8L17 9L18 9L18 8ZM1 9L1 10L2 10L2 9ZM10 9L10 11L11 11L11 9ZM12 9L12 10L13 10L13 9ZM29 9L29 10L30 10L30 9ZM4 10L4 11L5 11L5 10ZM1 11L1 12L2 12L2 15L4 15L4 14L7 14L7 13L5 13L5 12L4 12L4 14L3 14L3 12L2 12L2 11ZM9 12L9 13L11 13L11 12ZM26 13L26 14L27 14L27 13ZM6 15L6 16L7 16L7 15ZM14 15L14 16L16 16L16 15ZM22 16L22 17L20 17L20 18L22 18L22 17L23 17L23 16ZM3 17L3 18L4 18L4 17ZM12 19L12 21L14 21L14 20L13 20L13 19ZM23 20L23 21L25 21L25 20ZM6 22L6 23L7 23L7 22ZM17 22L17 23L16 23L16 24L15 24L15 26L16 26L16 24L17 24L17 23L18 23L18 22ZM9 24L9 25L10 25L10 24ZM19 25L19 26L20 26L20 25ZM25 25L25 28L28 28L28 25ZM26 26L26 27L27 27L27 26ZM29 26L29 28L30 28L30 27L31 27L31 29L32 29L32 27L31 27L31 26ZM26 29L26 31L25 31L25 32L28 32L28 29ZM9 30L9 31L10 31L10 30ZM0 0L7 0L7 7L0 7ZM1 1L1 6L6 6L6 1ZM2 2L5 2L5 5L2 5ZM26 0L33 0L33 7L26 7ZM27 1L27 6L32 6L32 1ZM28 2L31 2L31 5L28 5ZM0 26L7 26L7 33L0 33ZM1 27L1 32L6 32L6 27ZM2 28L5 28L5 31L2 31Z" fill="#6cc788"/></g></g></svg>
