<svg width="100" height="100" viewBox="0 0 100 100" fill="none" xmlns="http://www.w3.org/2000/svg">
<path fill-rule="evenodd" clip-rule="evenodd" d="M22.5789 19.8965L24.7486 11.7993C25.2994 9.7434 27.4262 8.51548 29.482 9.06618L37.5793 11.2362C38.9501 11.6036 40.3091 11.2395 41.3126 10.2355L47.2404 4.30797C48.7459 2.80278 51.2012 2.80278 52.7067 4.30797L58.6342 10.2361C59.6377 11.239 60.9967 11.6037 62.3678 11.2362L70.465 9.06624C72.5209 8.51554 74.6477 9.74288 75.1985 11.7994L77.3681 19.8969C77.7359 21.2678 78.7305 22.2626 80.101 22.63L88.1986 24.7994C90.2547 25.3504 91.4826 27.4771 90.9314 29.5332L88.762 37.6304C88.3946 39.0012 88.7586 40.36 89.7621 41.3637L95.6899 47.2912C97.1955 48.7967 97.1955 51.2521 95.6899 52.7572L89.7621 58.6849C88.7586 59.6884 88.3946 61.0474 88.762 62.4182L90.9319 70.5159C91.4826 72.5717 90.2547 74.6986 88.1988 75.2495L80.101 77.4189C78.7305 77.7862 77.7353 78.7811 77.3681 80.152L75.1985 88.2492C74.6478 90.3054 72.521 91.5333 70.465 90.9823L62.3678 88.8126C60.9969 88.4455 59.638 88.8092 58.6342 89.813L52.7067 95.7406C51.2012 97.2461 48.7459 97.2461 47.2404 95.7406L41.3132 89.813C40.3095 88.8092 38.9501 88.4455 37.5793 88.8126L29.482 90.9826C27.4258 91.5333 25.2994 90.3054 24.7486 88.2495L22.5789 80.152C22.2113 78.7811 21.2169 77.7862 19.8455 77.4189L11.7489 75.2495C9.69234 74.6986 8.46442 72.5717 9.01553 70.5159L11.1855 62.4185C11.5525 61.0474 11.1884 59.6884 10.1849 58.6849L4.25754 52.7572C2.75172 51.2521 2.75172 48.7967 4.25754 47.2912L10.1849 41.364C11.1884 40.3605 11.5525 39.0012 11.1855 37.6304L9.01553 29.5332C8.46442 27.4767 9.69233 25.3504 11.7484 24.7994L19.8461 22.6294C21.2169 22.2623 22.2119 21.2676 22.5789 19.8965Z" fill="white" stroke="#66B100" stroke-width="2"/>
<path fill-rule="evenodd" clip-rule="evenodd" d="M33.6379 71.2653C33.42 71.3242 33.2306 71.4781 33.1331 71.7004C33.0353 71.9232 33.0516 72.1672 33.1557 72.3668C33.3733 72.3079 33.5635 72.1539 33.6611 71.9317C33.7579 71.7087 33.742 71.4655 33.6379 71.2653ZM43.0673 73.1031C42.9489 73.6748 43.0811 74.2933 43.4806 74.7791C43.8811 75.2646 44.4624 75.5128 45.0462 75.5069C45.1643 74.935 45.0322 74.3168 44.6323 73.8309C44.2325 73.3452 43.6511 73.0968 43.0673 73.1031ZM40.9427 73.5214C40.633 73.9444 40.5096 74.4987 40.6548 75.0449C40.8002 75.5911 41.1823 76.0108 41.6618 76.2241C41.9717 75.801 42.0948 75.2467 41.9493 74.7009C41.8041 74.1542 41.422 73.7348 40.9427 73.5214ZM38.751 73.6586C38.4074 73.9522 38.1948 74.3928 38.2089 74.8799C38.2231 75.3665 38.461 75.7942 38.8207 76.0676C39.1643 75.7735 39.3767 75.3327 39.3624 74.8461C39.3484 74.3594 39.111 73.9315 38.751 73.6586ZM36.8224 73.2033C36.5045 73.3485 36.2528 73.6302 36.1596 73.995C36.0661 74.3593 36.152 74.7273 36.3608 75.0067C36.6783 74.8622 36.9302 74.5805 37.0235 74.2156C37.1167 73.8513 37.0313 73.4831 36.8224 73.2033ZM34.9983 72.7242C34.7927 72.8179 34.6298 73.0005 34.57 73.2356C34.5097 73.4711 34.5649 73.7087 34.6996 73.8893C34.905 73.796 35.0677 73.6137 35.1279 73.3783C35.1882 73.1431 35.1329 72.9049 34.9983 72.7242ZM31.5287 69.9765C31.833 70.0338 32.1103 70.2227 32.2684 70.5168C32.4262 70.8109 32.4314 71.1463 32.3108 71.4319C32.0065 71.3748 31.7293 71.1857 31.5714 70.8918C31.4131 70.5972 31.4081 70.2618 31.5287 69.9765ZM31.5735 73.7236C31.7078 73.4443 31.9619 73.2254 32.2874 73.1492C32.6122 73.0726 32.9378 73.1544 33.1821 73.3449C33.0483 73.6242 32.7938 73.8428 32.4686 73.9196C32.1434 73.9959 31.8181 73.9141 31.5735 73.7236ZM32.785 76.403C32.859 75.9282 33.1391 75.4907 33.5872 75.232C34.0355 74.9737 34.5548 74.9506 35.0023 75.1238C34.9285 75.598 34.6482 76.0358 34.2001 76.2942C33.7515 76.5531 33.2325 76.5762 32.785 76.403ZM35.3395 78.2331C35.2751 77.7573 35.4184 77.2578 35.774 76.8818C36.1293 76.506 36.6206 76.3355 37.0991 76.3735C37.1636 76.8491 37.0206 77.3489 36.6648 77.7248C36.309 78.1008 35.8181 78.2711 35.3395 78.2331ZM38.8508 79.5467C38.653 79.1094 38.6478 78.5898 38.8816 78.128C39.1152 77.6662 39.5367 77.3622 40.0062 77.2625C40.2038 77.7 40.2092 78.2193 39.9756 78.6815C39.7421 79.143 39.3205 79.447 38.8508 79.5467ZM42.7837 80.7234C42.3769 80.2461 42.1823 79.5957 42.3079 78.9316C42.4334 78.2676 42.8531 77.7331 43.4061 77.4373C43.8128 77.9148 44.0075 78.5653 43.8819 79.2298C43.7561 79.8937 43.3364 80.4279 42.7837 80.7234ZM66.3026 71.2653C66.5204 71.3242 66.7101 71.4781 66.8076 71.7004C66.9051 71.9232 66.8889 72.1672 66.7851 72.3668C66.5672 72.3079 66.3775 72.1539 66.2799 71.9317C66.1826 71.7087 66.1988 71.4652 66.3026 71.2653ZM56.8734 73.1031C56.9918 73.6748 56.8597 74.2933 56.46 74.7791C56.0597 75.2646 55.478 75.5128 54.8945 75.5069C54.7764 74.935 54.9085 74.3168 55.3086 73.8309C55.7083 73.3452 56.2896 73.0968 56.8734 73.1031ZM58.9979 73.5214C59.3078 73.9444 59.4311 74.4987 59.2857 75.0449C59.1402 75.5911 58.758 76.0108 58.2789 76.2241C57.9692 75.801 57.8461 75.2467 57.9913 74.7009C58.1365 74.1542 58.5185 73.7348 58.9979 73.5214ZM61.19 73.6586C61.5336 73.9522 61.746 74.3928 61.7319 74.8797C61.7179 75.3665 61.4797 75.7942 61.12 76.0674C60.7763 75.7735 60.5637 75.3326 60.5783 74.846C60.5924 74.3591 60.83 73.9315 61.19 73.6586ZM63.1184 73.2033C63.4362 73.3485 63.6876 73.6302 63.7812 73.995C63.8743 74.3591 63.7889 74.7273 63.5799 75.0067C63.2621 74.8622 63.0104 74.5805 62.9171 74.2156C62.8238 73.8513 62.9094 73.4831 63.1184 73.2033ZM64.9425 72.7242C65.1478 72.8179 65.3107 72.9999 65.3709 73.2356C65.4307 73.4711 65.3759 73.7087 65.241 73.8893C65.0358 73.796 64.8731 73.6137 64.8125 73.3783C64.7523 73.1431 64.8075 72.9049 64.9425 72.7242ZM68.412 69.9765C68.1073 70.0338 67.8304 70.2227 67.672 70.5174C67.5146 70.8109 67.5093 71.1463 67.6297 71.4319C67.9343 71.3749 68.2112 71.1858 68.3693 70.8919C68.5276 70.5972 68.5324 70.2618 68.412 69.9765ZM68.3671 73.7233C68.2327 73.4444 67.9785 73.2254 67.6534 73.1492C67.3284 73.0726 67.0029 73.1544 66.7587 73.3449C66.8922 73.6242 67.1469 73.8428 67.4721 73.9196C67.797 73.9959 68.1225 73.9141 68.3671 73.7233ZM67.1557 76.403C67.0817 75.9288 66.8016 75.4907 66.3532 75.232C65.9052 74.9737 65.3859 74.9506 64.9383 75.1238C65.0122 75.598 65.2924 76.0358 65.7402 76.2942C66.1889 76.5531 66.7079 76.5762 67.1557 76.403ZM64.6009 78.2331C64.6658 77.7573 64.5223 77.2578 64.167 76.8818C63.8112 76.506 63.3202 76.3355 62.8419 76.3735C62.7771 76.8491 62.9204 77.3489 63.2762 77.7248C63.6316 78.1008 64.1225 78.2711 64.6009 78.2331ZM61.0897 79.5467C61.2877 79.1094 61.2929 78.5898 61.0591 78.128C60.8253 77.6664 60.404 77.3622 59.9343 77.2625C59.7367 77.7 59.7312 78.2193 59.9647 78.6815C60.1986 79.143 60.6205 79.447 61.0897 79.5467ZM57.1573 80.7234C57.5635 80.2461 57.7585 79.5957 57.6326 78.9316C57.5071 78.2671 57.0876 77.7331 56.5344 77.4373C56.1276 77.9148 55.9329 78.5653 56.0591 79.2298C56.1847 79.8937 56.604 80.4279 57.1573 80.7234ZM51.5002 73.5313C51.6556 73.6866 51.8153 73.8365 51.9783 73.9802C52.3407 74.2911 52.7226 74.5827 53.1232 74.8537C53.635 75.1894 54.1744 75.4769 54.7326 75.7154L54.7409 75.719L54.7406 75.7185C57.6071 76.9368 60.9908 76.8412 63.8955 75.1644C65.4118 74.2887 66.6202 73.085 67.4826 71.6943C66.5809 73.3557 65.2237 74.797 63.4666 75.8115C60.0638 77.7761 55.9598 77.6568 52.7409 75.7479L52.7321 75.7425C52.2802 75.474 51.8459 75.1699 51.4336 74.8318C51.3829 74.7904 51.3334 74.7486 51.2844 74.7068C50.8146 74.3179 50.3756 73.8985 49.9705 73.4516C49.5649 73.8985 49.1261 74.3179 48.6562 74.7068C48.6071 74.7486 48.5579 74.7904 48.5071 74.8318C48.095 75.1699 47.6604 75.4736 47.2088 75.7425L47.1997 75.7479C43.9811 77.6568 39.8777 77.7761 36.474 75.8115C34.7171 74.797 33.3601 73.3557 32.4579 71.6943C33.3206 73.085 34.5288 74.2887 36.0449 75.1639C38.9499 76.8412 42.3337 76.9368 45.1999 75.7185V75.719L45.2081 75.7154C45.7663 75.4775 46.3055 75.1894 46.8174 74.8537C47.2178 74.5831 47.6001 74.2911 47.9621 73.9802C48.1254 73.8365 48.2851 73.6866 48.4402 73.5313C48.6941 73.2934 48.9364 73.0448 49.1681 72.7876L49.1728 72.7898L49.298 72.6466C48.4018 71.4787 47.7132 70.1627 47.2652 68.7574H48.3635C48.3868 68.8215 48.4108 68.8852 48.4351 68.9485C48.8097 69.9364 49.3107 70.8713 49.924 71.7288L49.9705 71.7935L50.0164 71.7288C50.63 70.8713 51.1307 69.9363 51.5059 68.9485C51.5302 68.8852 51.5539 68.8215 51.577 68.7574H52.6755C52.2272 70.1627 51.5388 71.4787 50.6427 72.6466L50.7681 72.7898L50.7727 72.7876C51.004 73.0448 51.2469 73.2934 51.5002 73.5313ZM52.1297 79.634C52.695 79.1788 53.0565 78.4813 53.0565 77.6989C53.0565 76.9171 52.6949 76.2196 52.1297 75.7643C51.5649 76.2196 51.203 76.9171 51.203 77.6992C51.203 78.4813 51.5652 79.1788 52.1297 79.634ZM47.8107 79.634C47.2456 79.1788 46.8841 78.4813 46.8841 77.6989C46.8841 76.9171 47.2457 76.219 47.8107 75.7643C48.376 76.219 48.7374 76.9171 48.7374 77.6992C48.7374 78.4813 48.376 79.1788 47.8107 79.634Z" fill="#66B100"/>
<path fill-rule="evenodd" clip-rule="evenodd" d="M49.9703 66.1311C63.0314 66.1311 73.6194 66.7897 73.6194 67.6022C73.6194 68.4145 63.0314 69.0732 49.9703 69.0732C36.9092 69.0732 26.3212 68.4145 26.3212 67.6022C26.3212 66.7897 36.9092 66.1311 49.9703 66.1311Z" fill="#66B100"/>
<path fill-rule="evenodd" clip-rule="evenodd" d="M42.2308 67.823C42.2308 67.823 43.6579 65.9125 44.0932 64.0016C44.5285 62.0907 43.416 59.8415 43.2467 57.9791C43.2467 57.9791 43.2467 57.5316 42.8959 57.58C42.5453 57.6283 41.2271 58.1605 40.7675 57.1204C40.3081 56.0803 38.7599 55.8629 38.4696 54.1695C38.1794 52.4765 36.7766 45.8735 33.4388 45.5833C30.1012 45.293 28.0692 45.4503 27.1018 45.7524C26.1344 46.0547 25.82 45.293 25.288 45.1236C24.7555 44.9544 24.1754 44.7607 24.1754 43.9021C24.1754 43.0435 24.3081 42.56 25.2634 41.9431C26.219 41.3264 26.5574 41.0847 26.7269 40.7338C26.8962 40.383 27.4524 39.5365 27.912 39.0408C27.912 39.0408 27.4042 38.3755 27.6581 37.771C27.912 37.1663 28.4925 37.4566 28.7949 37.1058C29.0972 36.7552 29.6777 35.8723 29.6777 35.8723C29.6777 35.8723 26.9204 34.7598 28.0571 30.9623C28.0571 30.9623 28.1659 31.9903 28.6982 32.8125C29.2302 33.6351 30.1855 34.6749 31.1289 34.8201C32.0722 34.9652 32.955 35.05 33.354 34.5419C33.753 34.0341 33.6564 33.5867 33.1484 32.6193C32.6405 31.6519 32.1326 30.2973 33.0273 28.6285C33.0273 28.6285 32.955 29.7411 34.5271 31.8694C36.0992 33.9979 35.9298 35.1104 34.4543 36.0538C34.4543 36.0538 35.5429 35.4006 36.486 35.6908C37.4295 35.9811 36.486 37.1663 36.0264 37.3839C36.0264 37.3839 38.1067 37.771 39.5095 37.771C40.9123 37.771 45.8464 36.4167 50.0551 37.6259C54.2634 38.8354 59.6086 38.3517 61.2533 38.3517C62.8981 38.3517 64.4945 38.3882 65.5949 37.602C66.6954 36.8158 67.2275 36.3443 68.5095 37.3359C69.7913 38.3275 70.2991 37.3844 71.061 37.7228C71.823 38.0616 73.8063 38.8595 73.4918 44.4951C73.1774 50.1306 72.8871 51.7753 73.3709 53.6134C73.8548 55.4517 75.0397 55.6695 75.4026 57.2658C75.7653 58.8619 74.8948 59.6602 75.7653 61.0388C75.7653 61.0388 74.8945 60.4341 74.2659 58.9346C74.2659 58.9346 74.0723 60.4826 75.209 61.9337C75.209 61.9337 73.4918 61.7644 72.5244 59.5151C71.557 57.2658 72.9113 55.621 72.9113 55.621C72.9113 55.621 71.5085 51.7995 71.7987 47.7118C72.0889 43.6243 71.5812 42.1732 71.5812 42.1732C71.5812 42.1732 70.1057 47.0589 70.2509 49.526C70.3961 51.9928 69.477 53.4926 70.1543 55.2098C70.8314 56.9271 69.8155 58.9827 69.4528 60.0471C69.0899 61.1114 68.5336 66.3114 68.34 67.0612C68.1467 67.8108 64.6154 67.2063 64.6154 67.2063L63.6722 66.6016C63.6722 66.6016 65.7763 65.2231 66.3567 62.0303C66.9373 58.8376 65.2442 56.1045 64.0348 54.1212C64.0348 54.1212 63.3092 54.6051 62.1482 55.8627C60.9875 57.1203 60.1649 59.539 59.1009 59.6357C58.0366 59.7327 57.7464 57.4106 56.4888 57.217C55.2311 57.0238 52.5704 56.9995 50.2486 55.9113C47.9267 54.8227 47.2495 55.4274 47.056 57.2898C46.8624 59.1521 46.2094 60.7727 46.258 61.716C46.3061 62.6591 47.6365 67.5207 47.6365 67.5207L43.5124 68.2947L42.2308 67.823Z" fill="#66B100"/>
<path fill-rule="evenodd" clip-rule="evenodd" d="M33.093 62.0026C33.093 62.0026 34.8318 62.845 34.545 66.6441C34.3258 69.5455 35.1311 68.1705 35.5237 67.3587C35.7089 67.606 35.8878 67.7244 35.9927 67.4835C36.4014 68.2969 37.1179 69.4012 36.9097 66.6441C36.623 62.845 38.3615 62.0026 38.3615 62.0026C37.0741 62.3879 36.3745 64.15 36.0264 65.4531C35.8873 61.9966 37.5012 61.2142 37.5012 61.2142C36.2248 61.5959 35.5265 63.3313 35.1751 64.6308C34.7766 63.5001 34.1232 62.3108 33.093 62.0026Z" fill="#66B100"/>
<path fill-rule="evenodd" clip-rule="evenodd" d="M36.2643 62.1805C36.2643 62.1805 38.003 63.0229 37.7163 66.822C37.497 69.7234 38.3023 68.3484 38.695 67.5366C38.8801 67.7839 39.059 67.9023 39.1639 67.6614C39.5727 68.4749 40.2892 69.5792 40.0811 66.822C39.7943 63.0229 41.5328 62.1805 41.5328 62.1805C40.2454 62.5659 39.5459 64.328 39.1976 65.631C39.0585 62.1745 40.6726 61.3921 40.6726 61.3921C39.3961 61.7738 38.6977 63.5092 38.3463 64.8088C37.9479 63.678 37.2945 62.4886 36.2643 62.1805Z" fill="#66B100"/>
<path fill-rule="evenodd" clip-rule="evenodd" d="M47.9038 63.8851C47.9038 63.8851 48.6794 64.2607 48.5513 65.9553C48.4538 67.2496 48.813 66.6363 48.9881 66.2743C49.0707 66.3845 49.1505 66.4373 49.1972 66.3299C49.3797 66.6926 49.6991 67.1852 49.6063 65.9553C49.4782 64.2607 50.254 63.8851 50.254 63.8851C49.6796 64.0569 49.3676 64.8428 49.2123 65.4239C49.1504 63.8823 49.8702 63.5331 49.8702 63.5331C49.3009 63.7037 48.9893 64.4777 48.8325 65.0574C48.655 64.5529 48.3632 64.0225 47.9038 63.8851Z" fill="#66B100"/>
<path fill-rule="evenodd" clip-rule="evenodd" d="M48.8861 64.0363C48.8861 64.0363 49.6616 64.4119 49.5335 66.1066C49.436 67.4008 49.7951 66.7876 49.9703 66.4254C50.0529 66.5355 50.1327 66.5884 50.1793 66.4811C50.3616 66.8437 50.6813 67.3364 50.5885 66.1066C50.4604 64.4118 51.2362 64.0363 51.2362 64.0363C50.6618 64.2082 50.3498 64.9941 50.1944 65.5754C50.1326 64.0335 50.8524 63.6843 50.8524 63.6843C50.2831 63.8548 49.9714 64.6288 49.8147 65.2086C49.6371 64.7041 49.3454 64.1737 48.8861 64.0363Z" fill="#66B100"/>
<path fill-rule="evenodd" clip-rule="evenodd" d="M60.3463 64.1349C60.3463 64.1349 61.122 64.5108 60.994 66.2054C60.8962 67.4994 61.2553 66.8862 61.4308 66.5241C61.5131 66.6345 61.593 66.6874 61.6399 66.5798C61.822 66.9427 62.1418 67.4351 62.0491 66.2055C61.921 64.5108 62.6964 64.135 62.6964 64.135C62.1224 64.3067 61.8102 65.0926 61.655 65.6739C61.5928 64.1321 62.3128 63.7833 62.3128 63.7833C61.7433 63.9535 61.4319 64.7275 61.2753 65.3072C61.0972 64.8028 60.8059 64.2723 60.3463 64.1349Z" fill="#66B100"/>
<path fill-rule="evenodd" clip-rule="evenodd" d="M61.3285 64.2861C61.3285 64.2861 62.1043 64.6619 61.9762 66.3566C61.8784 67.6506 62.2376 67.0374 62.413 66.6752C62.4953 66.7857 62.5752 66.8385 62.6221 66.7309C62.8042 67.0938 63.1239 67.5862 63.0312 66.3566C62.9031 64.6619 63.6786 64.2861 63.6786 64.2861C63.1045 64.4579 62.7924 65.2441 62.6372 65.8252C62.5749 64.2835 63.2951 63.9344 63.2951 63.9344C62.7256 64.1046 62.4141 64.8786 62.2575 65.4583C62.0795 64.9541 61.7881 64.4234 61.3285 64.2861Z" fill="#66B100"/>
<path fill-rule="evenodd" clip-rule="evenodd" d="M69.3177 64.4617C69.3177 64.4617 70.0933 64.8376 69.9655 66.5323C69.8677 67.8263 70.2267 67.213 70.4019 66.8509C70.4845 66.9613 70.5645 67.0142 70.6113 66.9065C70.7936 67.2694 71.1133 67.7618 71.0203 66.5323C70.8924 64.8377 71.6679 64.4617 71.6679 64.4617C71.0938 64.6335 70.7818 65.4198 70.6264 66.0008C70.5642 64.4592 71.2842 64.11 71.2842 64.11C70.7148 64.2802 70.4034 65.0543 70.2466 65.6339C70.0687 65.1297 69.7771 64.5991 69.3177 64.4617Z" fill="#66B100"/>
<path fill-rule="evenodd" clip-rule="evenodd" d="M70.3 64.6132C70.3 64.6132 71.0756 64.9888 70.9478 66.6834C70.8499 67.9774 71.2091 67.3644 71.3842 67.002C71.4668 67.1125 71.5468 67.1654 71.5936 67.0579C71.7758 67.4206 72.0955 67.9133 72.0025 66.6834C71.8747 64.9888 72.6502 64.6132 72.6502 64.6132C72.0761 64.7847 71.7641 65.5709 71.6087 66.152C71.5465 64.6104 72.2666 64.2613 72.2666 64.2613C71.6972 64.4317 71.3858 65.2056 71.229 65.7854C71.0509 65.2809 70.7594 64.7506 70.3 64.6132Z" fill="#66B100"/>
<path fill-rule="evenodd" clip-rule="evenodd" d="M53.8157 63.7829C53.8157 63.7829 54.5911 64.1585 54.4633 65.8532C54.3656 67.1475 54.7246 66.5342 54.8998 66.172C54.9823 66.2821 55.0623 66.335 55.1091 66.2276C55.2914 66.5903 55.6109 67.083 55.518 65.8532C55.3901 64.1584 56.1657 63.7829 56.1657 63.7829C55.5911 63.9547 55.2795 64.7406 55.1242 65.322C55.062 63.7802 55.7821 63.4309 55.7821 63.4309C55.2126 63.6014 54.9012 64.3755 54.7445 64.9552C54.5665 64.4507 54.2749 63.9203 53.8157 63.7829Z" fill="#66B100"/>
<path fill-rule="evenodd" clip-rule="evenodd" d="M54.6584 63.0185C54.6584 63.0185 55.7136 63.5298 55.5397 65.8361C55.4065 67.5977 55.8953 66.763 56.1339 66.2701C56.2462 66.4201 56.355 66.4921 56.4187 66.3458C56.6667 66.8396 57.1016 67.5098 56.9754 65.8361C56.8013 63.5299 57.8565 63.0185 57.8565 63.0185C57.0752 63.2523 56.6503 64.3221 56.4389 65.113C56.3547 63.0146 57.3345 62.5396 57.3345 62.5396C56.5595 62.7714 56.1356 63.8251 55.9224 64.614C55.6803 63.9275 55.2834 63.2055 54.6584 63.0185Z" fill="#66B100"/>
</svg>
