<svg width="50" height="50" viewBox="0 0 50 50" fill="none" xmlns="http://www.w3.org/2000/svg">
<g clip-path="url(#clip0_3_186)">
<path fill-rule="evenodd" clip-rule="evenodd" d="M11.2894 9.94827L12.3743 5.89967C12.6497 4.8717 13.7131 4.25774 14.741 4.53309L18.7897 5.61809C19.475 5.8018 20.1546 5.61975 20.6563 5.11774L23.6202 2.15398C24.373 1.40139 25.6006 1.40139 26.3533 2.15398L29.3171 5.11806C29.8188 5.61951 30.4984 5.80183 31.1839 5.61812L35.2325 4.53312C36.2605 4.25777 37.3239 4.87144 37.5992 5.8997L38.6841 9.94845C38.868 10.6339 39.3653 11.1313 40.0505 11.315L44.0993 12.3997C45.1274 12.6752 45.7413 13.7386 45.4657 14.7666L44.381 18.8152C44.1973 19.5006 44.3793 20.18 44.8811 20.6818L47.8449 23.6456C48.5977 24.3983 48.5977 25.6261 47.8449 26.3786L44.8811 29.3424C44.3793 29.8442 44.1973 30.5237 44.381 31.2091L45.4659 35.258C45.7413 36.2859 45.1274 37.3493 44.0994 37.6247L40.0505 38.7094C39.3653 38.8931 38.8676 39.3905 38.6841 40.076L37.5992 44.1246C37.3239 45.1527 36.2605 45.7667 35.2325 45.4912L31.1839 44.4063C30.4985 44.2228 29.819 44.4046 29.3171 44.9065L26.3533 47.8703C25.6006 48.623 24.373 48.623 23.6202 47.8703L20.6566 44.9065C20.1547 44.4046 19.475 44.2227 18.7897 44.4063L14.741 45.4913C13.7129 45.7667 12.6497 45.1527 12.3743 44.1247L11.2894 40.076C11.1056 39.3905 10.6084 38.8931 9.92277 38.7094L5.87443 37.6247C4.84617 37.3493 4.23221 36.2859 4.50776 35.258L5.59273 31.2092C5.77624 30.5237 5.59421 29.8442 5.09247 29.3424L2.12877 26.3786C1.37586 25.6261 1.37586 24.3983 2.12877 23.6456L5.09247 20.682C5.59421 20.1802 5.77624 19.5006 5.59273 18.8152L4.50776 14.7666C4.23221 13.7383 4.84617 12.6752 5.8742 12.3997L9.92303 11.3147C10.6084 11.1312 11.1059 10.6338 11.2894 9.94827Z" fill="white" stroke="#66B100" stroke-width="2"/>
<path fill-rule="evenodd" clip-rule="evenodd" d="M18.3847 39.97C18.3847 39.97 19.4031 38.6066 19.7137 37.243C20.0244 35.8793 19.2305 34.2742 19.1097 32.9451C19.1097 32.9451 19.1097 32.6258 18.8593 32.6604C18.6091 32.6948 17.6684 33.0746 17.3405 32.3324C17.0126 31.5902 15.9078 31.435 15.7006 30.2266C15.4935 29.0184 14.4925 24.3064 12.1105 24.0992C9.72879 23.8921 8.27871 24.0043 7.58834 24.2199C6.89797 24.4357 6.67361 23.8921 6.29397 23.7713C5.91399 23.6504 5.5 23.5122 5.5 22.8996C5.5 22.2868 5.59469 21.9417 6.27638 21.5015C6.95831 21.0615 7.1998 20.8889 7.32078 20.6386C7.44163 20.3882 7.83852 19.7841 8.16651 19.4304C8.16651 19.4304 7.80413 18.9556 7.98532 18.5243C8.16652 18.0927 8.58076 18.2999 8.79655 18.0495C9.01225 17.7993 9.42658 17.1693 9.42658 17.1693C9.42658 17.1693 7.45884 16.3754 8.27007 13.6654C8.27007 13.6654 8.34767 14.399 8.72756 14.9858C9.1072 15.5728 9.78892 16.3148 10.4622 16.4184C11.1353 16.522 11.7653 16.5825 12.05 16.2199C12.3348 15.8575 12.2658 15.5382 11.9033 14.8479C11.5409 14.1575 11.1784 13.1909 11.8169 12C11.8169 12 11.7653 12.7939 12.8872 14.3128C14.0091 15.8317 13.8882 16.6256 12.8352 17.2988C12.8352 17.2988 13.6121 16.8327 14.2851 17.0398C14.9584 17.2469 14.2851 18.0927 13.9571 18.248C13.9571 18.248 15.4416 18.5243 16.4427 18.5243C17.4438 18.5243 20.9649 17.5578 23.9683 18.4207C26.9714 19.2838 30.7859 18.9387 31.9596 18.9387C33.1333 18.9387 34.2725 18.9647 35.0578 18.4036C35.8431 17.8426 36.2229 17.5061 37.1377 18.2137C38.0524 18.9214 38.4148 18.2483 38.9585 18.4899C39.5023 18.7316 40.9176 19.3011 40.6932 23.3227C40.4688 27.3443 40.2617 28.518 40.6069 29.8297C40.9522 31.1415 41.7978 31.297 42.0568 32.4361C42.3156 33.5752 41.6944 34.1448 42.3156 35.1286C42.3156 35.1286 41.6942 34.6971 41.2456 33.627C41.2456 33.627 41.1074 34.7317 41.9187 35.7673C41.9187 35.7673 40.6932 35.6464 40.0029 34.0413C39.3125 32.4361 40.2789 31.2624 40.2789 31.2624C40.2789 31.2624 39.2778 28.5353 39.4849 25.6182C39.6921 22.7013 39.3297 21.6657 39.3297 21.6657C39.3297 21.6657 38.2768 25.1523 38.3804 26.9129C38.484 28.6732 37.8281 29.7435 38.3115 30.969C38.7947 32.1944 38.0697 33.6614 37.8109 34.4209C37.5519 35.1804 37.155 38.8913 37.0168 39.4263C36.8788 39.9613 34.3588 39.5299 34.3588 39.5299L33.6857 39.0983C33.6857 39.0983 35.1873 38.1146 35.6014 35.8362C36.0158 33.5578 34.8076 31.6074 33.9445 30.1921C33.9445 30.1921 33.4267 30.5374 32.5982 31.4349C31.7699 32.3323 31.1829 34.0584 30.4235 34.1274C29.664 34.1966 29.4569 32.5395 28.5595 32.4013C27.662 32.2634 25.7633 32.2461 24.1063 31.4695C22.4494 30.6927 21.9661 31.1242 21.828 32.4533C21.6899 33.7823 21.2239 34.9388 21.2586 35.6119C21.2929 36.2849 22.2423 39.7542 22.2423 39.7542L19.2992 40.3066L18.3847 39.97Z" fill="#66B100"/>
</g>
<defs>
<clipPath id="clip0_3_186">
<rect width="50" height="50" fill="white"/>
</clipPath>
</defs>
</svg>
